<svg xmlns="http://www.w3.org/2000/svg" viewBox="0 0 600.568 494.111"><defs><style>.cls-2{fill:none;stroke:#6fc6cf;stroke-miterlimit:10;stroke-width:.5px}</style></defs><g id="レイヤー_2" data-name="レイヤー 2"><g id="レイヤー_4" data-name="レイヤー 4"><path d="M97.92 179.252c-8.1.187-1.814 14.52.641 17.367 2.049 2.374 4.61 4.218 6.678 6.591 2.7 3.094 5.3 6.326 7.883 9.516 4.752 5.874 3.015 13.753 2 20.721-1.284 8.837-2.685 16.609 4.223 23.369 8.238 8.062 21.761 4.805 31.49 1.378a99.5 99.5 0 0 1 12.255-3.908c6.976-1.486 11.539-.549 18 2.435 13.337 6.16 25.44 15.341 35.693 25.82a124.654 124.654 0 0 1 34.917 73.435 120.056 120.056 0 0 1-6.648 53.515 124.479 124.479 0 0 1-10.5 21.926c-1.825 3.011-6.445 7.364-4.554 11.447a.428.428 0 0 0 .277.342c64.633 3.037 127.8-24.562 168.911-74.671 4.755-5.8 10.4-12.154 13.773-18.886 2.564-5.112-1.124-6.224-5.143-8.772a127.138 127.138 0 0 1-33.411-30.85c-20.593-27.358-29.364-62.764-22.67-96.473 7.078-35.645 30.04-66.6 61.474-84.6.812-.465.936-4.65 0-5-5.694-2.132-11.161-2.606-17.182-3.342l-34-4.156q-53.487-6.54-106.977-13.066-52.746-6.435-105.5-12.833-15.76-1.906-31.522-3.789c-2.322-.275-4.653-.631-6.985-.811-6.925-.537-11.164 4.1-15.329 8.865-3.24 3.71-6.355 7.629-9.938 11.018-4.159 3.934-8.681 7.466-12.329 11.919-5.508 6.725-7.4 17.484 1.076 22.8 3.957 2.484 9.4 3.246 12.448 7.051 3.14 3.924-.553 11.275-.573 16.06-.043 10.36 7.562 19.675 17.772 22.069 3.352.786 7.375.723 10.442-1.057 1.185-.688.023-5.013 0-5-9.437 5.477-23.477-3.462-26.563-12.75-2.55-7.677 5.5-16.969-.786-24.143-3.027-3.455-7.723-4.476-11.6-6.569-2.8-1.512-4.642-3.114-5.008-6.326-.446-3.906 2.663-7 5.24-9.744 3.5-3.723 7.564-6.822 11.157-10.435 3.529-3.549 6.69-7.5 9.99-11.255 3.87-4.4 8.084-8.01 14.338-7.471 2.4.207 4.8.555 7.19.839q15.141 1.794 30.277 3.639 50.337 6.09 100.668 12.243 52.422 6.395 104.842 12.8c17.328 2.118 34.767 3.822 52.039 6.362a32.691 32.691 0 0 1 6.809 2.074v-5a128.52 128.52 0 0 0-61.641 83.165c-7.7 34.481-1.5 71.729 18.008 101.3a128.722 128.722 0 0 0 43.633 40.691l-.531-1.835v.014l.384-3.075c-30.118 46.674-78.406 79.944-133.044 90.527a203.889 203.889 0 0 1-23.516 3.152q-5.823.438-11.664.547c-1.556.03-14.012.7-14.309.058l-.132 4.57c28.523-41.435 30.809-97.893 5.133-141.286-13.254-22.4-34.169-41.952-58.439-51.8-18.928-7.68-43.762 19.822-59.737-.475-4.245-5.393-1.038-14.062-.395-20.386.5-4.927.837-10.2-.338-15.068-1.416-5.87-6.763-10.61-10.574-15.067-1.652-1.933-15.454-14.563-8.126-14.732.829-.019.785-5.018 0-5z" fill="#231815"/><circle class="cls-2" cx="239.955" cy="236.85" r="204.431"/><circle class="cls-2" cx="74.178" cy="427.823" r="48.249"/><circle class="cls-2" cx="125.951" cy="368.16" r="125.701"/><circle class="cls-2" cx="473.978" cy="236.85" r="126.34"/><circle class="cls-2" cx="522.352" cy="236.85" r="77.966"/><path class="cls-2" d="M36.481.434v472.197L444.386 236.85 36.481.434zm0 472.197L374.178 82.659m226.14 154.191H35.524"/></g></g></svg>