<svg xmlns="http://www.w3.org/2000/svg" viewBox="0 0 342 328"><defs><style>.cls-1{fill:none;stroke:#454545;stroke-miterlimit:10;stroke-width:16px}</style></defs><g id="レイヤー_2" data-name="レイヤー 2"><g id="レイヤー_1-2" data-name="レイヤー 1"><path class="cls-1" d="M101.773 70h105.1A51.131 51.131 0 0 1 258 121.131v119.523m0 18.553v9.662A51.131 51.131 0 0 1 206.869 320H59.131A51.131 51.131 0 0 1 8 268.869V121.131A51.131 51.131 0 0 1 59.131 70h22.012"/><path class="cls-1" d="M282.869 258H135.131A51.112 51.112 0 0 1 84 206.869V59.131A51.131 51.131 0 0 1 135.131 8h147.738A51.131 51.131 0 0 1 334 59.131v147.738A51.131 51.131 0 0 1 282.869 258zm-191.975-7.894L66.5 274.5M166 175l-58.523 58.523"/><path fill="#454545" d="M128.811 154.647l78.59-21.054-21.051 78.594-57.539-57.54z"/></g></g></svg>