<svg xmlns="http://www.w3.org/2000/svg" viewBox="0 0 342 328"><defs><style>.cls-1{fill:none;stroke:#454545;stroke-miterlimit:10;stroke-width:16px;}.cls-2{fill:#454545;}</style></defs><title>new_window</title><g id="レイヤー_2" data-name="レイヤー 2"><g id="レイヤー_1-2" data-name="レイヤー 1"><path class="cls-1" d="M101.773,70h105.1A51.131,51.131,0,0,1,258,121.131V240.654"/><path class="cls-1" d="M258,259.207v9.662A51.131,51.131,0,0,1,206.869,320H59.131A51.131,51.131,0,0,1,8,268.869V121.131A51.131,51.131,0,0,1,59.131,70H81.143"/><path class="cls-1" d="M282.869,258H135.131A51.112,51.112,0,0,1,84,206.869V59.131A51.131,51.131,0,0,1,135.131,8H282.869A51.131,51.131,0,0,1,334,59.131V206.869A51.131,51.131,0,0,1,282.869,258Z"/><line class="cls-1" x1="90.894" y1="250.106" x2="66.5" y2="274.5"/><line class="cls-1" x1="166" y1="175" x2="107.477" y2="233.523"/><polygon class="cls-2" points="128.811 154.647 207.401 133.593 186.35 212.187 128.811 154.647"/></g></g></svg>