<svg xmlns="http://www.w3.org/2000/svg" viewBox="0 0 249.9 203.2"><defs><style>.cls-1{fill:#fff;}</style></defs><title>twitter</title><g id="レイヤー_2" data-name="レイヤー 2"><g id="レイヤー_1-2" data-name="レイヤー 1"><path class="cls-1" d="M78.5,203.2c94.3,0,145.9-78.2,145.9-145.9,0-2.2,0-4.4-.1-6.6a104.467,104.467,0,0,0,25.6-26.6,103.926,103.926,0,0,1-29.5,8.1A51.591,51.591,0,0,0,243,3.8a102,102,0,0,1-32.6,12.4,51.291,51.291,0,0,0-88.7,35.1A56.677,56.677,0,0,0,123,63,145.613,145.613,0,0,1,17.3,9.4,51.485,51.485,0,0,0,33.2,77.9,51.867,51.867,0,0,1,10,71.5v.7a51.386,51.386,0,0,0,41.1,50.3,51.577,51.577,0,0,1-23.1.9A51.276,51.276,0,0,0,75.9,159a102.847,102.847,0,0,1-63.7,22A98.679,98.679,0,0,1,0,180.3a145.862,145.862,0,0,0,78.5,22.9"/></g></g></svg>