<?xml version="1.0" encoding="utf-8"?>
<!-- Generator: Adobe Illustrator 22.1.0, SVG Export Plug-In . SVG Version: 6.00 Build 0)  -->
<svg version="1.1" id="レイヤー_1" xmlns="http://www.w3.org/2000/svg" xmlns:xlink="http://www.w3.org/1999/xlink" x="0px"
	 y="0px" viewBox="0 0 600 174" style="enable-background:new 0 0 600 174;" xml:space="preserve">
<style type="text/css">
	.st0{fill:#FFFFFF;}
</style>
<path class="st0" d="M413.9,65.3h-22.3v11.6h22.3l0,0c8.5,0,15.4,6.9,15.4,15.4s-6.9,15.4-15.4,15.4l0,0h-10.7v11.6h10.7
	c14.9,0,27-12.1,27-27C440.9,77.3,428.9,65.3,413.9,65.3z"/>
<g>
	<polygon class="st0" points="54.1,49.9 68.5,49.9 90,102 97.2,84.7 82.9,49.9 97.2,49.9 104.4,67.3 111.6,49.9 126,49.9 
		111.6,84.7 118.8,102 140.4,49.9 154.8,49.9 126,119.4 111.6,119.4 104.4,102 97.2,119.4 82.9,119.4 	"/>
	<polygon class="st0" points="251.8,65.3 251.8,99.9 263.4,115.3 263.4,65.3 	"/>
	<polygon class="st0" points="225.7,65.3 225.7,84.6 251.8,119.2 263.4,119.2 263.4,115.3 	"/>
	<rect x="214.1" y="65.3" class="st0" width="11.6" height="54"/>
	<polygon class="st0" points="513.2,119.2 524.7,119.2 524.7,98 513.2,116.4 	"/>
	<polyline class="st0" points="545.4,65.3 513.2,116.4 513.2,98 512.3,96.7 532.1,65.3 	"/>
	<polyline class="st0" points="492.5,65.3 512.3,96.7 519,86.2 505.8,65.3 	"/>
	<polygon class="st0" points="164.4,107.7 169.2,98 183.8,98 188.6,107.7 	"/>
	<polygon class="st0" points="176.5,80.5 170.2,65.4 147.9,119.2 160.4,119.2 	"/>
	<polygon class="st0" points="182.7,65.2 170.3,65.2 170.2,65.4 192.6,119.2 205.2,119.2 	"/>
	<polygon class="st0" points="54.6,49.9 68.9,49.9 90.5,101.9 97.6,84.6 83.3,49.9 97.6,49.9 104.8,67.3 112,49.9 126.3,49.9 
		112,84.6 119.2,101.9 140.7,49.9 155,49.9 126.3,119.2 112,119.2 104.8,101.9 97.6,119.2 83.3,119.2 	"/>
	<rect x="391.7" y="76.8" class="st0" width="11.6" height="42.4"/>
	<rect x="292" y="76.8" class="st0" width="11.6" height="42.4"/>
	<rect x="276.5" y="65.3" class="st0" width="42.6" height="11.6"/>
	<rect x="332.2" y="65.3" class="st0" width="42.6" height="11.6"/>
	<rect x="343.8" y="86.5" class="st0" width="28.2" height="11.6"/>
	<polygon class="st0" points="343.8,107.7 343.8,76.8 332.2,76.8 332.2,119.2 374.8,119.2 374.8,107.7 	"/>
	<rect x="454.1" y="107.7" class="st0" width="42.6" height="11.6"/>
	<rect x="454.1" y="65.3" class="st0" width="11.6" height="42.4"/>
</g>
</svg>
