<svg version="1.1" id="レイヤー_1" xmlns="http://www.w3.org/2000/svg" x="0" y="0" viewBox="0 0 600 174" xml:space="preserve"><style>.st0{fill:#fff}</style><path class="st0" d="M413.9 65.3h-22.3v11.6h22.3c8.5 0 15.4 6.9 15.4 15.4s-6.9 15.4-15.4 15.4h-10.7v11.6h10.7c14.9 0 27-12.1 27-27 0-15-12-27-27-27zM54.1 49.9h14.4L90 102l7.2-17.3-14.3-34.8h14.3l7.2 17.4 7.2-17.4H126l-14.4 34.8 7.2 17.3 21.6-52.1h14.4L126 119.4h-14.4l-7.2-17.4-7.2 17.4H82.9zm197.7 15.4v34.6l11.6 15.4v-50zm-26.1 0v19.3l26.1 34.6h11.6v-3.9zm-11.6 0h11.6v54h-11.6zm299.1 53.9h11.5V98l-11.5 18.4z"/><path class="st0" d="M545.4 65.3l-32.2 51.1V98l-.9-1.3 19.8-31.4"/><path class="st0" d="M492.5 65.3l19.8 31.4 6.7-10.5-13.2-20.9m-341.4 42.4l4.8-9.7h14.6l4.8 9.7z"/><path class="st0" d="M176.5 80.5l-6.3-15.1-22.3 53.8h12.5z"/><path class="st0" d="M182.7 65.2h-12.4l-.1.2 22.4 53.8h12.6zM54.6 49.9h14.3l21.6 52 7.1-17.3-14.3-34.7h14.3l7.2 17.4 7.2-17.4h14.3L112 84.6l7.2 17.3 21.5-52H155l-28.7 69.3H112l-7.2-17.3-7.2 17.3H83.3zm337.1 26.9h11.6v42.4h-11.6zm-99.7 0h11.6v42.4H292z"/><path class="st0" d="M276.5 65.3h42.6v11.6h-42.6zm55.7 0h42.6v11.6h-42.6zm11.6 21.2H372v11.6h-28.2z"/><path class="st0" d="M343.8 107.7V76.8h-11.6v42.4h42.6v-11.5zm110.3 0h42.6v11.6h-42.6zm0-42.4h11.6v42.4h-11.6z"/></svg>